<?xml version="1.0" encoding="UTF-8" standalone="no"?>
<!-- Generator: Adobe Illustrator 16.0.0, SVG Export Plug-In . SVG Version: 6.00 Build 0)  -->

<svg
   xmlns:dc="http://purl.org/dc/elements/1.1/"
   xmlns:cc="http://creativecommons.org/ns#"
   xmlns:rdf="http://www.w3.org/1999/02/22-rdf-syntax-ns#"
   xmlns:svg="http://www.w3.org/2000/svg"
   xmlns="http://www.w3.org/2000/svg"
   xmlns:sodipodi="http://sodipodi.sourceforge.net/DTD/sodipodi-0.dtd"
   xmlns:inkscape="http://www.inkscape.org/namespaces/inkscape"
   version="1.1"
   id="Capa_1"
   x="0px"
   y="0px"
   width="357px"
   height="357px"
   viewBox="0 0 357 357"
   style="enable-background:new 0 0 357 357;"
   xml:space="preserve"
   inkscape:version="0.91 r13725"
   sodipodi:docname="close-button-simple-white.svg"><metadata
   id="metadata42"><rdf:RDF><cc:Work
       rdf:about=""><dc:format>image/svg+xml</dc:format><dc:type
         rdf:resource="http://purl.org/dc/dcmitype/StillImage" /><dc:title></dc:title></cc:Work></rdf:RDF></metadata><defs
   id="defs40" /><sodipodi:namedview
   pagecolor="#ffffff"
   bordercolor="#666666"
   borderopacity="1"
   objecttolerance="10"
   gridtolerance="10"
   guidetolerance="10"
   inkscape:pageopacity="0"
   inkscape:pageshadow="2"
   inkscape:window-width="1680"
   inkscape:window-height="987"
   id="namedview38"
   showgrid="false"
   inkscape:zoom="0.66106443"
   inkscape:cx="-42.355932"
   inkscape:cy="176.98729"
   inkscape:window-x="-8"
   inkscape:window-y="-8"
   inkscape:window-maximized="1"
   inkscape:current-layer="Capa_1" />
<g
   id="g3">
	<g
   id="close">
		<polygon
   points="357,35.7 321.3,0 178.5,142.8 35.7,0 0,35.7 142.8,178.5 0,321.3 35.7,357 178.5,214.2 321.3,357 357,321.3     214.2,178.5   "
   id="polygon6" />
	</g>
</g>
<g
   id="g8">
</g>
<g
   id="g10">
</g>
<g
   id="g12">
</g>
<g
   id="g14">
</g>
<g
   id="g16">
</g>
<g
   id="g18">
</g>
<g
   id="g20">
</g>
<g
   id="g22">
</g>
<g
   id="g24">
</g>
<g
   id="g26">
</g>
<g
   id="g28">
</g>
<g
   id="g30">
</g>
<g
   id="g32">
</g>
<g
   id="g34">
</g>
<g
   id="g36">
</g>
<path
   style="fill:#ffffff"
   d="M 18.457098,338.09311 1.0896336,320.67625 72.165689,249.58812 143.24174,178.5 72.157362,107.40355 1.0729794,36.307097 18.469167,18.91091 35.865353,1.5147235 106.9498,72.611237 178.03424,143.70775 249.50648,72.247389 320.97873,0.78702774 338.39367,18.152571 355.80862,35.518116 284.32956,107.00906 212.85049,178.5 l 71.47907,71.49094 71.47906,71.49095 -17.41495,17.36554 -17.41494,17.36554 -71.47023,-71.45835 -71.47023,-71.45834 -71.10685,71.10686 -71.106857,71.10685 -17.367465,-17.41688 z"
   id="path3370"
   inkscape:connector-curvature="0" /></svg>